<svg width="25" height="24" viewBox="0 0 25 24" fill="none" xmlns="http://www.w3.org/2000/svg">
<g id="animation">
<path id="Union" fill-rule="evenodd" clip-rule="evenodd" d="M13.8982 1.08275C14.3054 1.25952 14.5474 1.68359 14.4923 2.12409L13.6328 9.00006H21.5C21.888 9.00006 22.241 9.22452 22.4056 9.5759C22.5702 9.92729 22.5166 10.3422 22.2682 10.6402L12.2682 22.6402C11.984 22.9813 11.509 23.0941 11.1018 22.9174C10.6946 22.7406 10.4527 22.3165 10.5077 21.876L11.3672 15.0001H3.50001C3.11199 15.0001 2.759 14.7756 2.59442 14.4242C2.42984 14.0728 2.48339 13.658 2.73179 13.3599L12.7318 1.35987C13.016 1.01884 13.491 0.905986 13.8982 1.08275ZM5.63505 13.0001H12.5C12.7868 13.0001 13.0599 13.1232 13.2497 13.3383C13.4395 13.5533 13.5279 13.8395 13.4923 14.1241L12.9154 18.7396L19.365 11.0001H12.5C12.2132 11.0001 11.9402 10.8769 11.7503 10.6619C11.5605 10.4468 11.4722 10.1606 11.5077 9.87602L12.0847 5.26051L5.63505 13.0001Z" fill="#DDD8E3"/>
</g>
</svg>
