<svg width="20" height="20" viewBox="0 0 20 20" fill="none" xmlns="http://www.w3.org/2000/svg">
<g id="app">
<g id="Union">
<path d="M10.0002 14.1663C9.53993 14.1663 9.16683 14.5394 9.16683 14.9997C9.16683 15.4599 9.53993 15.833 10.0002 15.833H10.0085C10.4687 15.833 10.8418 15.4599 10.8418 14.9997C10.8418 14.5394 10.4687 14.1663 10.0085 14.1663H10.0002Z" fill="#DDD8E3"/>
<path fill-rule="evenodd" clip-rule="evenodd" d="M5.8335 0.833008C4.45278 0.833008 3.3335 1.9523 3.3335 3.33301V16.6663C3.3335 18.0471 4.45278 19.1663 5.8335 19.1663H14.1668C15.5475 19.1663 16.6668 18.0471 16.6668 16.6663V3.33301C16.6668 1.9523 15.5475 0.833008 14.1668 0.833008H5.8335ZM5.00016 3.33301C5.00016 2.87277 5.37326 2.49967 5.8335 2.49967H14.1668C14.6271 2.49967 15.0002 2.87277 15.0002 3.33301V16.6663C15.0002 17.1266 14.6271 17.4997 14.1668 17.4997H5.8335C5.37326 17.4997 5.00016 17.1266 5.00016 16.6663V3.33301Z" fill="#DDD8E3"/>
</g>
</g>
</svg>
