<svg width="24" height="24" viewBox="0 0 24 24" fill="none" xmlns="http://www.w3.org/2000/svg">
<g id="arrow">
<path id="Union" d="M17.923 6.6144C17.8753 6.50019 17.8055 6.39303 17.7136 6.29945C17.7093 6.29506 17.7049 6.29071 17.7006 6.2864C17.5201 6.10925 17.2728 6 17 6H9C8.44772 6 8 6.44772 8 7C8 7.55228 8.44772 8 9 8H14.5858L6.29289 16.2929C5.90237 16.6834 5.90237 17.3166 6.29289 17.7071C6.68342 18.0976 7.31658 18.0976 7.70711 17.7071L16 9.41421V15C16 15.5523 16.4477 16 17 16C17.5523 16 18 15.5523 18 15V7C18 6.86333 17.9726 6.73306 17.923 6.6144Z" fill="#DDD8E3"/>
</g>
</svg>
