<svg width="20" height="20" viewBox="0 0 20 20" fill="none" xmlns="http://www.w3.org/2000/svg">
<g id="branding">
<path id="Union" fill-rule="evenodd" clip-rule="evenodd" d="M10.7474 1.29749C10.6071 1.01307 10.3174 0.833008 10.0002 0.833008C9.683 0.833008 9.39332 1.01307 9.25293 1.29749L6.87164 6.12173L1.54633 6.9001C1.23253 6.94597 0.971963 7.16597 0.874149 7.46765C0.776334 7.76932 0.858228 8.10037 1.08541 8.32164L4.93809 12.0741L4.02885 17.3755C3.97522 17.6881 4.10376 18.0041 4.36041 18.1906C4.61706 18.377 4.9573 18.4016 5.23806 18.2539L10.0002 15.7495L14.7623 18.2539C15.0431 18.4016 15.3833 18.377 15.64 18.1906C15.8966 18.0041 16.0252 17.6881 15.9715 17.3755L15.0623 12.0741L18.915 8.32164C19.1421 8.10037 19.224 7.76932 19.1262 7.46765C19.0284 7.16597 18.7678 6.94597 18.454 6.9001L13.1287 6.12173L10.7474 1.29749ZM8.17244 7.25186L10.0002 3.54905L11.8279 7.25186C11.9492 7.49757 12.1835 7.66795 12.4547 7.70758L16.5432 8.30518L13.5854 11.186C13.3888 11.3775 13.2991 11.6534 13.3455 11.9239L14.0434 15.9927L10.3881 14.0704C10.1452 13.9427 9.85513 13.9427 9.61231 14.0704L5.957 15.9927L6.65486 11.9239C6.70124 11.6534 6.61153 11.3775 6.41496 11.186L3.4572 8.30518L7.54571 7.70758C7.81684 7.66795 8.05116 7.49757 8.17244 7.25186Z" fill="#DDD8E3"/>
</g>
</svg>
