<svg width="160" height="160" viewBox="0 0 160 160" fill="none" xmlns="http://www.w3.org/2000/svg">
<g id="branding">
<g id="Group">
<path id="Vector" d="M158 80C158 123.078 123.078 158 80 158C36.9218 158 2 123.078 2 80C2 36.9218 36.9218 2 80 2C123.078 2 158 36.9218 158 80Z" stroke="#DDD8E3" stroke-width="2"/>
<path id="Vector_2" d="M135.155 70.1006C122.658 82.5973 102.397 82.5973 89.8999 70.1006C77.4031 57.6038 77.4031 37.3425 89.8999 24.8457C102.397 12.349 122.658 12.349 135.155 24.8457C147.652 37.3425 147.652 57.6038 135.155 70.1006Z" stroke="#DDD8E3" stroke-width="2"/>
<path id="Vector_3" d="M70.1006 135.154C57.6038 147.651 37.3425 147.651 24.8457 135.154C12.349 122.657 12.349 102.396 24.8457 89.8994C37.3425 77.4027 57.6038 77.4027 70.1006 89.8994C82.5973 102.396 82.5973 122.657 70.1006 135.154Z" stroke="#DDD8E3" stroke-width="2"/>
<path id="Vector_4" d="M135.155 135.154C122.658 147.651 102.397 147.651 89.8999 135.154C77.4031 122.657 77.4031 102.396 89.8999 89.8994C102.397 77.4027 122.658 77.4027 135.155 89.8994C147.652 102.396 147.652 122.657 135.155 135.154Z" stroke="#DDD8E3" stroke-width="2"/>
<path id="Vector_5" d="M70.1006 70.1006C57.6038 82.5973 37.3425 82.5973 24.8457 70.1006C12.349 57.6038 12.349 37.3425 24.8457 24.8457C37.3425 12.349 57.6038 12.349 70.1006 24.8457C82.5973 37.3425 82.5973 57.6038 70.1006 70.1006Z" stroke="#DDD8E3" stroke-width="2"/>
</g>
</g>
</svg>
