<svg width="25" height="24" viewBox="0 0 25 24" fill="none" xmlns="http://www.w3.org/2000/svg">
<g id="code">
<g id="Union">
<path d="M9.20711 6.70711C9.59763 6.31658 9.59763 5.68342 9.20711 5.29289C8.81658 4.90237 8.18342 4.90237 7.79289 5.29289L1.79289 11.2929C1.40237 11.6834 1.40237 12.3166 1.79289 12.7071L7.79289 18.7071C8.18342 19.0976 8.81658 19.0976 9.20711 18.7071C9.59763 18.3166 9.59763 17.6834 9.20711 17.2929L3.91421 12L9.20711 6.70711Z" fill="#DDD8E3"/>
<path d="M17.2071 5.29289C16.8166 4.90237 16.1834 4.90237 15.7929 5.29289C15.4024 5.68342 15.4024 6.31658 15.7929 6.70711L21.0858 12L15.7929 17.2929C15.4024 17.6834 15.4024 18.3166 15.7929 18.7071C16.1834 19.0976 16.8166 19.0976 17.2071 18.7071L23.2071 12.7071C23.5976 12.3166 23.5976 11.6834 23.2071 11.2929L17.2071 5.29289Z" fill="#DDD8E3"/>
</g>
</g>
</svg>
