<svg width="154" height="54" viewBox="0 0 154 54" fill="none" xmlns="http://www.w3.org/2000/svg">
<g id="digital" opacity="0.35">
<path d="M29.5292 41.9913H23.5473L23.2119 37.9102C22.131 39.4755 20.7706 40.5936 19.1307 41.2645C17.4908 41.9354 15.646 42.3081 13.5961 42.3826C11.3226 42.3453 9.36589 41.9354 7.72599 41.1527C6.08609 40.3327 4.72572 39.2519 3.64488 37.9102C2.56403 36.5311 1.76272 34.9472 1.24093 33.1582C0.756418 31.3692 0.51416 29.4684 0.51416 27.4558C0.51416 25.2568 0.793688 23.2256 1.35274 21.3621C1.94907 19.4986 2.82493 17.8773 3.98031 16.4983C5.13569 15.1193 6.55197 14.0384 8.22914 13.2558C9.90631 12.4358 11.863 12.0258 14.0992 12.0258C15.7019 12.0258 17.3231 12.2867 18.963 12.8085C20.6029 13.3303 22.0006 14.2993 23.1559 15.7156V2.46597H29.5292V41.9913ZM14.826 17.7841C13.4097 17.7841 12.1984 18.0264 11.1921 18.5109C10.1858 18.9954 9.34725 19.6663 8.67638 20.5235C8.04279 21.3807 7.57691 22.4056 7.27874 23.5983C6.98058 24.7537 6.8315 26.0022 6.8315 27.344C6.8315 28.6857 6.98058 29.9343 7.27874 31.0897C7.57691 32.245 8.04279 33.2513 8.67638 34.1086C9.34725 34.9658 10.1858 35.6553 11.1921 36.1771C12.2357 36.6616 13.4843 36.9038 14.9378 36.9038C16.3168 36.9038 17.5095 36.643 18.5158 36.1212C19.5594 35.5621 20.4166 34.8353 21.0874 33.9408C21.7956 33.0464 22.3174 32.0214 22.6528 30.866C22.9882 29.7107 23.1559 28.518 23.1559 27.2881C23.1559 25.9836 22.9882 24.7537 22.6528 23.5983C22.3546 22.4429 21.8701 21.4553 21.1993 20.6353C20.5284 19.7781 19.6712 19.1072 18.6276 18.6227C17.584 18.1009 16.3168 17.8214 14.826 17.7841Z" fill="#0D0616"/>
<path d="M38.9799 0.285645C40.1353 0.285645 41.0856 0.639714 41.8311 1.34785C42.6137 2.05599 43.0051 3.02502 43.0051 4.25495C43.0051 5.4476 42.6137 6.398 41.8311 7.10614C41.0856 7.81427 40.1353 8.16834 38.9799 8.16834C37.7499 8.16834 36.7623 7.81427 36.0169 7.10614C35.2715 6.398 34.8988 5.4476 34.8988 4.25495C34.8988 3.02502 35.2715 2.05599 36.0169 1.34785C36.7623 0.639714 37.7499 0.285645 38.9799 0.285645ZM35.7373 41.9913V12.529H42.1106V41.9913H35.7373Z" fill="#0D0616"/>
<path d="M76.3209 36.792C76.2464 38.4319 76.2091 40.0718 76.2091 41.7117C76.2091 43.3516 75.9855 45.0102 75.5382 46.6873C74.6437 49.8553 73.0225 52.222 70.6744 53.7874C68.3264 55.3527 65.4007 56.1354 61.8972 56.1354C60.2573 56.1354 58.692 55.949 57.2012 55.5763C55.7476 55.2036 54.4245 54.6259 53.2319 53.8433C52.0765 53.0606 51.0888 52.0543 50.2689 50.8244C49.4489 49.6317 48.9085 48.1782 48.6476 46.4637H55.3004C55.5985 47.8055 56.3812 48.8118 57.6484 49.4826C58.9529 50.1535 60.3878 50.4889 61.9532 50.4889C63.7421 50.4889 65.1584 50.1535 66.202 49.4826C67.2828 48.849 68.1028 47.9545 68.6618 46.7991C69.2209 45.681 69.575 44.3766 69.724 42.8858C69.8731 41.4322 69.9477 39.8855 69.9477 38.2456C69.0159 39.6991 67.8046 40.7613 66.3138 41.4322C64.8602 42.1031 63.034 42.4571 60.835 42.4944C58.3007 42.4571 56.1949 42.0472 54.5177 41.2645C52.8778 40.4445 51.5174 39.3451 50.4366 37.9661C49.3557 36.5871 48.5544 35.0031 48.0326 33.2141C47.5109 31.4251 47.25 29.5243 47.25 27.5117C47.25 25.2755 47.5295 23.2256 48.0886 21.3621C48.6849 19.4986 49.5607 17.8773 50.7161 16.4983C51.8715 15.1193 53.3064 14.0384 55.0209 13.2558C56.7353 12.4731 58.7293 12.0817 61.0028 12.0817C62.9408 12.0817 64.6553 12.4172 66.1461 13.088C67.6742 13.7216 68.9973 14.7093 70.1154 16.051L70.6185 12.529H76.3209V36.792ZM61.6736 17.84C60.2573 17.84 59.0274 18.0823 57.9839 18.5668C56.9776 19.0513 56.139 19.7222 55.4681 20.5794C54.8345 21.4366 54.35 22.4616 54.0146 23.6542C53.7164 24.8096 53.5673 26.0582 53.5673 27.3999C53.5673 28.7416 53.7164 29.9902 54.0146 31.1456C54.35 32.2637 54.8531 33.2513 55.524 34.1086C56.1949 34.9658 57.0335 35.6553 58.0398 36.1771C59.0833 36.6616 60.3133 36.9038 61.7295 36.9038C63.1831 36.9038 64.413 36.6243 65.4193 36.0653C66.4629 35.5062 67.3201 34.7794 67.991 33.8849C68.6618 32.9532 69.165 31.9096 69.5004 30.7542C69.8359 29.5988 70.0036 28.4062 70.0036 27.1763C70.0036 25.9091 69.8359 24.6978 69.5004 23.5424C69.165 22.387 68.6432 21.3993 67.9351 20.5794C67.2642 19.7222 66.407 19.0513 65.3634 18.5668C64.3198 18.0823 63.0899 17.84 61.6736 17.84Z" fill="#0D0616"/>
<path d="M85.7703 0.285645C86.9257 0.285645 87.8761 0.639714 88.6215 1.34785C89.4041 2.05599 89.7955 3.02502 89.7955 4.25495C89.7955 5.4476 89.4041 6.398 88.6215 7.10614C87.8761 7.81427 86.9257 8.16834 85.7703 8.16834C84.5403 8.16834 83.5527 7.81427 82.8073 7.10614C82.0619 6.398 81.6892 5.4476 81.6892 4.25495C81.6892 3.02502 82.0619 2.05599 82.8073 1.34785C83.5527 0.639714 84.5403 0.285645 85.7703 0.285645ZM82.5277 41.9913V12.529H88.901V41.9913H82.5277Z" fill="#0D0616"/>
<path d="M103.992 12.529H112.825V18.0636H103.992V31.0338C103.992 31.7792 104.029 32.4873 104.103 33.1582C104.215 33.829 104.402 34.444 104.662 35.0031C104.961 35.5248 105.371 35.9535 105.892 36.2889C106.414 36.6243 107.122 36.792 108.017 36.792C109.582 36.792 110.924 36.3262 112.042 35.3944L114.166 40.1464C113.197 40.8918 112.079 41.4508 110.812 41.8235C109.545 42.159 108.296 42.3267 107.066 42.3267C103.861 42.3267 101.494 41.5254 99.9664 39.9228C98.4383 38.2829 97.6742 35.7298 97.6742 32.2637V18.0636H93.0341V12.529H97.6742V4.14313H103.992V12.529Z" fill="#0D0616"/>
<path d="M136.088 38.3574C135.118 39.7364 133.833 40.7613 132.23 41.4322C130.627 42.0658 128.838 42.3826 126.863 42.3826C125.298 42.3826 123.863 42.1963 122.558 41.8235C121.291 41.4508 120.173 40.8918 119.204 40.1464C118.235 39.3637 117.471 38.4133 116.912 37.2952C116.353 36.1398 116.073 34.8353 116.073 33.3818C116.073 31.7792 116.39 30.4188 117.024 29.3007C117.657 28.1453 118.515 27.2135 119.595 26.5054C120.713 25.7973 122.018 25.2755 123.509 24.94C125 24.5673 126.565 24.381 128.205 24.381H135.752C135.752 22.2193 135.268 20.5421 134.299 19.3495C133.33 18.1568 131.634 17.5419 129.211 17.5046C127.795 17.5046 126.565 17.7468 125.521 18.2314C124.515 18.7159 123.844 19.5172 123.509 20.6353H116.968C117.191 19.0699 117.695 17.7468 118.477 16.666C119.297 15.5852 120.266 14.6907 121.384 13.9825C122.54 13.2744 123.807 12.7712 125.186 12.4731C126.602 12.1749 128.018 12.0258 129.435 12.0258C131.261 12.0258 132.957 12.2681 134.522 12.7526C136.088 13.2371 137.448 14.0571 138.603 15.2125C139.908 16.5542 140.784 18.1568 141.231 20.0203C141.678 21.8839 141.902 23.9151 141.902 26.1141V41.9913H136.367L136.088 38.3574ZM135.752 28.9093H129.602C128.522 28.9093 127.441 29.0025 126.36 29.1889C125.279 29.338 124.347 29.7293 123.565 30.3629C122.819 30.9592 122.447 31.8351 122.447 32.9905C122.447 34.4067 122.95 35.4876 123.956 36.233C125 36.9411 126.267 37.2952 127.758 37.2952C128.913 37.2952 129.975 37.1461 130.944 36.8479C131.951 36.5498 132.808 36.0653 133.516 35.3944C134.224 34.6863 134.764 33.8104 135.137 32.7668C135.547 31.686 135.752 30.4002 135.752 28.9093Z" fill="#0D0616"/>
<path d="M147.627 41.9913V2.46597H154V41.9913H147.627Z" fill="#0D0616"/>
</g>
</svg>
