<svg width="80" height="80" viewBox="0 0 80 80" fill="none" xmlns="http://www.w3.org/2000/svg">
<g id="Icon">
<circle id="Ellipse 7" cx="40" cy="40" r="39" stroke="#DDD8E3" stroke-width="2"/>
<path id="Ellipse 8" d="M57 40C57 50.9378 55.0029 60.7918 51.816 67.8739C48.5868 75.0499 44.3319 79 40 79C35.6681 79 31.4132 75.0499 28.184 67.8739C24.997 60.7918 23 50.9378 23 40C23 29.0622 24.997 19.2082 28.184 12.1261C31.4132 4.95011 35.6681 1 40 1C44.3319 1 48.5868 4.95011 51.816 12.1261C55.0029 19.2082 57 29.0622 57 40Z" stroke="#DDD8E3" stroke-width="2"/>
<path id="Ellipse 9" d="M79 40C79 44.3319 75.0499 48.5868 67.8739 51.816C60.7918 55.0029 50.9378 57 40 57C29.0622 57 19.2082 55.0029 12.1261 51.816C4.95011 48.5868 1 44.3319 1 40C1 35.6681 4.95011 31.4132 12.1261 28.184C19.2082 24.997 29.0622 23 40 23C50.9378 23 60.7918 24.997 67.8739 28.184C75.0499 31.4132 79 35.6681 79 40Z" stroke="#DDD8E3" stroke-width="2"/>
</g>
</svg>
