<svg width="1800" height="280" viewBox="0 0 1800 280" fill="none" xmlns="http://www.w3.org/2000/svg">
<g clip-path="url(#clip0_2235_375)">
<path d="M31.9787 65.7561C32.1743 67.3208 32.2721 68.8855 32.2721 70.4502L33.1522 79.5451C33.3478 81.1098 33.4456 82.6745 33.4456 84.2392C44.203 69.7657 58.2853 62.5289 75.6927 62.5289C86.6456 62.5289 95.4471 64.7782 102.097 69.2767C108.747 73.7752 113.93 79.7407 117.646 87.173C123.71 79.1539 130.555 73.0907 138.183 68.9833C146.007 64.6804 155.102 62.5289 165.468 62.5289C174.269 62.5289 181.799 63.9958 188.058 66.9296C194.513 69.8635 199.598 73.9708 203.314 79.2517C207.226 84.5326 210.062 90.6936 211.822 97.7348C213.582 104.58 214.463 111.915 214.463 119.738V220.369H181.017V132.061C181.017 127.366 180.724 122.672 180.137 117.978C179.55 113.284 178.279 109.079 176.323 105.363C174.563 101.451 171.922 98.3215 168.402 95.9745C164.881 93.4318 160.187 92.1605 154.319 92.1605C148.06 92.1605 142.877 93.7252 138.77 96.8546C134.858 99.7885 131.729 103.407 129.382 107.71C127.23 112.013 125.763 116.902 124.981 122.379C124.199 127.66 123.807 132.941 123.807 138.222V220.369H90.6552V131.474C90.6552 126.975 90.3618 122.477 89.775 117.978C89.3839 113.284 88.3081 109.079 86.5478 105.363C84.7875 101.647 82.1471 98.5171 78.6265 95.9745C75.3015 93.4318 70.6074 92.1605 64.5441 92.1605C58.2853 92.1605 53.0044 93.7252 48.7015 96.8546C44.5941 99.984 41.3669 103.896 39.0199 108.59C36.6728 113.088 35.1081 118.076 34.3257 123.552C33.5434 128.833 33.1522 133.723 33.1522 138.222V220.369H0V65.7561H31.9787Z" fill="#0D0616"/>
<path d="M343.143 201.299C338.058 208.536 331.31 213.914 322.899 217.435C314.489 220.76 305.101 222.422 294.735 222.422C286.52 222.422 278.99 221.444 272.144 219.489C265.494 217.533 259.627 214.599 254.541 210.687C249.456 206.58 245.446 201.592 242.513 195.725C239.579 189.661 238.112 182.816 238.112 175.188C238.112 166.777 239.774 159.638 243.099 153.771C246.424 147.708 250.923 142.818 256.595 139.102C262.463 135.386 269.308 132.647 277.132 130.887C284.955 128.931 293.17 127.953 301.776 127.953H341.383C341.383 116.609 338.84 107.808 333.755 101.549C328.669 95.2899 319.77 92.0627 307.057 91.8671C299.624 91.8671 293.17 93.1385 287.694 95.6811C282.413 98.2238 278.892 102.429 277.132 108.297H242.806C243.98 100.082 246.62 93.1385 250.727 87.4664C255.03 81.7943 260.116 77.1002 265.983 73.384C272.047 69.6679 278.696 67.0274 285.933 65.4627C293.366 63.898 300.798 63.1157 308.23 63.1157C317.814 63.1157 326.713 64.387 334.928 66.9296C343.143 69.4723 350.282 73.7752 356.345 79.8385C363.191 86.8796 367.787 95.2899 370.134 105.069C372.481 114.849 373.655 125.508 373.655 137.048V220.369H344.61L343.143 201.299ZM341.383 151.717H309.11C303.438 151.717 297.766 152.206 292.094 153.184C286.422 153.966 281.533 156.02 277.425 159.345C273.513 162.475 271.558 167.071 271.558 173.134C271.558 180.566 274.198 186.238 279.479 190.15C284.955 193.866 291.605 195.725 299.429 195.725C305.492 195.725 311.066 194.942 316.152 193.377C321.433 191.813 325.931 189.27 329.647 185.75C333.363 182.033 336.199 177.437 338.155 171.961C340.307 166.288 341.383 159.541 341.383 151.717Z" fill="#0D0616"/>
<path d="M403.699 220.369V12.9473H436.851V128.833H460.908L500.808 65.7561H538.361L489.66 139.395L542.469 220.369H503.742L462.962 157.878H436.851V220.369H403.699Z" fill="#0D0616"/>
<path d="M582.987 154.358C583.379 160.03 584.552 165.311 586.508 170.2C588.464 175.09 591.104 179.393 594.429 183.109C597.95 186.63 602.155 189.466 607.045 191.617C612.13 193.769 617.998 194.844 624.648 194.844C631.689 194.844 638.143 193.573 644.011 191.03C649.879 188.488 654.182 184.087 656.92 177.828H691.246C689.29 185.652 686.063 192.4 681.564 198.072C677.261 203.744 672.078 208.438 666.015 212.154C660.147 215.675 653.595 218.315 646.358 220.075C639.317 221.64 631.787 222.422 623.768 222.422C611.446 222.422 600.59 220.564 591.202 216.848C582.01 213.132 574.284 207.753 568.025 200.712C561.766 193.671 557.072 185.358 553.943 175.775C551.009 165.995 549.542 155.042 549.542 142.916C549.542 131.18 551.204 120.521 554.529 110.937C557.854 101.158 562.646 92.7473 568.905 85.7061C575.36 78.6649 583.085 73.1884 592.082 69.2767C601.079 65.1693 611.348 63.1157 622.888 63.1157C635.014 63.1157 645.478 65.1693 654.279 69.2767C663.081 73.1884 670.415 78.5671 676.283 85.4127C682.346 92.2583 686.845 100.277 689.779 109.47C692.713 118.663 694.179 128.638 694.179 139.395C694.179 144.48 693.886 149.468 693.299 154.358H582.987ZM661.614 129.127C661.223 117.391 657.507 108.297 650.465 101.842C643.424 95.3877 634.329 92.1605 623.181 92.1605C616.922 92.1605 611.446 93.1385 606.751 95.0943C602.057 97.0502 598.048 99.6907 594.723 103.016C591.593 106.341 589.051 110.252 587.095 114.751C585.139 119.25 583.868 124.041 583.281 129.127H661.614Z" fill="#0D0616"/>
<path d="M718.581 220.369V65.7561H749.973L751.733 87.7598C763.664 71.3304 779.898 63.1157 800.434 63.1157C802.39 63.1157 804.248 63.2135 806.009 63.409C807.964 63.409 809.725 63.5068 811.289 63.7024V94.801C808.942 94.801 806.595 94.8988 804.248 95.0943C802.097 95.0943 799.945 95.0943 797.794 95.0943C789.188 95.2899 781.951 96.8546 776.084 99.7885C770.412 102.527 765.717 106.243 762.001 110.937C758.481 115.631 755.938 121.205 754.373 127.66C752.809 133.919 752.026 140.666 752.026 147.903V220.369H718.581Z" fill="#0D0616"/>
<path d="M880.787 90.987C877.853 90.987 874.723 91.1826 871.398 91.5738C868.269 91.9649 865.237 92.8451 862.304 94.2142C859.565 95.3877 857.218 97.148 855.262 99.4951C853.502 101.842 852.622 104.874 852.622 108.59C852.622 112.697 853.991 115.924 856.729 118.272C859.663 120.619 863.086 122.575 866.998 124.139C870.909 125.508 875.017 126.682 879.32 127.66C883.818 128.442 887.632 129.127 890.762 129.713C899.172 131.474 906.702 133.332 913.352 135.288C920.198 137.244 925.968 139.884 930.662 143.209C935.356 146.338 938.974 150.446 941.517 155.531C944.255 160.616 945.624 167.266 945.624 175.481C945.624 184.283 943.766 191.715 940.05 197.778C936.529 203.841 931.835 208.731 925.968 212.447C920.296 215.968 913.743 218.511 906.311 220.075C899.074 221.64 891.544 222.422 883.721 222.422C875.897 222.422 868.171 221.64 860.543 220.075C852.915 218.511 845.874 215.87 839.42 212.154C833.161 208.438 827.88 203.548 823.577 197.485C819.47 191.226 816.927 183.696 815.949 174.894H849.688C850.471 178.806 852.133 182.033 854.676 184.576C857.218 187.119 860.152 189.172 863.477 190.737C866.998 192.302 870.616 193.377 874.332 193.964C878.048 194.551 881.471 194.844 884.601 194.844C886.948 194.844 889.784 194.649 893.109 194.258C896.629 193.866 899.857 192.986 902.79 191.617C905.724 190.248 908.169 188.488 910.125 186.336C912.276 183.989 913.352 181.055 913.352 177.535C913.352 174.21 912.57 171.472 911.005 169.32C909.44 166.973 907.289 165.017 904.551 163.452C902.008 161.888 898.879 160.714 895.162 159.932C891.446 158.954 887.535 157.976 883.427 156.998C876.973 155.825 870.029 154.358 862.597 152.597C855.36 150.837 848.515 148.588 842.06 145.85C835.801 142.916 830.618 138.613 826.511 132.941C822.404 127.269 820.35 120.032 820.35 111.23C820.35 101.842 822.208 94.1164 825.924 88.0532C829.64 81.9899 834.432 77.1002 840.3 73.384C846.168 69.4723 852.72 66.8318 859.957 65.4627C867.193 63.898 874.332 63.1157 881.374 63.1157C898.39 63.1157 912.276 67.0274 923.034 74.851C933.987 82.6745 939.952 94.0186 940.93 108.883H909.538C908.56 102.624 905.333 98.2238 899.857 95.6811C894.576 92.9429 888.219 91.3782 880.787 90.987Z" fill="#0D0616"/>
<g opacity="0.35">
<path d="M1146.8 220.365H1115.41L1113.65 198.948C1107.98 207.163 1100.84 213.031 1092.23 216.551C1083.63 220.072 1073.94 222.028 1063.19 222.419C1051.26 222.223 1040.99 220.072 1032.38 215.964C1023.78 211.662 1016.64 205.99 1010.96 198.948C1005.29 191.712 1001.09 183.399 998.349 174.011C995.806 164.623 994.535 154.648 994.535 144.086C994.535 132.546 996.002 121.887 998.936 112.107C1002.07 102.328 1006.66 93.8196 1012.72 86.5829C1018.79 79.3461 1026.22 73.674 1035.02 69.5667C1043.82 65.2637 1054.09 63.1123 1065.83 63.1123C1074.24 63.1123 1082.75 64.4814 1091.35 67.2196C1099.96 69.9579 1107.29 75.0431 1113.36 82.4755V12.9439H1146.8V220.365ZM1069.64 93.3307C1062.21 93.3307 1055.85 94.602 1050.57 97.1446C1045.29 99.6873 1040.89 103.208 1037.37 107.706C1034.04 112.205 1031.6 117.584 1030.03 123.842C1028.47 129.906 1027.69 136.458 1027.69 143.499C1027.69 150.54 1028.47 157.092 1030.03 163.156C1031.6 169.219 1034.04 174.5 1037.37 178.998C1040.89 183.497 1045.29 187.115 1050.57 189.853C1056.05 192.396 1062.6 193.667 1070.23 193.667C1077.46 193.667 1083.72 192.298 1089 189.56C1094.48 186.626 1098.98 182.812 1102.5 178.118C1106.22 173.424 1108.95 168.045 1110.71 161.982C1112.47 155.919 1113.36 149.66 1113.36 143.206C1113.36 136.36 1112.47 129.906 1110.71 123.842C1109.15 117.779 1106.61 112.596 1103.09 108.293C1099.57 103.795 1095.07 100.274 1089.59 97.7314C1084.11 94.9932 1077.46 93.5262 1069.64 93.3307Z" fill="#0D0616"/>
<path d="M1196.4 1.50195C1202.46 1.50195 1207.45 3.36004 1211.36 7.07622C1215.47 10.7924 1217.52 15.8777 1217.52 22.3321C1217.52 28.5909 1215.47 33.5784 1211.36 37.2946C1207.45 41.0108 1202.46 42.8689 1196.4 42.8689C1189.94 42.8689 1184.76 41.0108 1180.85 37.2946C1176.93 33.5784 1174.98 28.5909 1174.98 22.3321C1174.98 15.8777 1176.93 10.7924 1180.85 7.07622C1184.76 3.36004 1189.94 1.50195 1196.4 1.50195ZM1179.38 220.365V65.7527H1212.83V220.365H1179.38Z" fill="#0D0616"/>
<path d="M1392.35 193.081C1391.96 201.687 1391.77 210.292 1391.77 218.898C1391.77 227.504 1390.59 236.208 1388.25 245.009C1383.55 261.634 1375.05 274.054 1362.72 282.269C1350.4 290.484 1335.05 294.591 1316.66 294.591C1308.06 294.591 1299.84 293.613 1292.02 291.657C1284.39 289.701 1277.45 286.67 1271.19 282.562C1265.12 278.455 1259.94 273.174 1255.64 266.72C1251.34 260.461 1248.5 252.833 1247.13 243.836H1282.04C1283.61 250.877 1287.72 256.158 1294.37 259.678C1301.21 263.199 1308.74 264.959 1316.96 264.959C1326.34 264.959 1333.78 263.199 1339.25 259.678C1344.92 256.353 1349.23 251.659 1352.16 245.596C1355.1 239.728 1356.95 232.883 1357.74 225.059C1358.52 217.431 1358.91 209.314 1358.91 200.709C1354.02 208.337 1347.66 213.911 1339.84 217.431C1332.21 220.952 1322.63 222.81 1311.09 223.006C1297.79 222.81 1286.74 220.659 1277.94 216.551C1269.33 212.248 1262.19 206.478 1256.52 199.242C1250.85 192.005 1246.64 183.692 1243.9 174.304C1241.17 164.916 1239.8 154.941 1239.8 144.379C1239.8 132.644 1241.26 121.887 1244.2 112.107C1247.33 102.328 1251.92 93.8196 1257.99 86.5829C1264.05 79.3461 1271.58 73.674 1280.58 69.5667C1289.57 65.4593 1300.04 63.4056 1311.97 63.4056C1322.14 63.4056 1331.14 65.1659 1338.96 68.6865C1346.98 72.0115 1353.92 77.1946 1359.79 84.2358L1362.43 65.7527H1392.35V193.081ZM1315.49 93.624C1308.06 93.624 1301.6 94.8954 1296.13 97.438C1290.84 99.9807 1286.44 103.501 1282.92 108C1279.6 112.498 1277.06 117.877 1275.3 124.136C1273.73 130.199 1272.95 136.751 1272.95 143.792C1272.95 150.834 1273.73 157.386 1275.3 163.449C1277.06 169.317 1279.7 174.5 1283.22 178.998C1286.74 183.497 1291.14 187.115 1296.42 189.853C1301.9 192.396 1308.35 193.667 1315.78 193.667C1323.41 193.667 1329.86 192.201 1335.15 189.267C1340.62 186.333 1345.12 182.519 1348.64 177.825C1352.16 172.935 1354.8 167.459 1356.56 161.395C1358.32 155.332 1359.2 149.073 1359.2 142.619C1359.2 135.969 1358.32 129.612 1356.56 123.549C1354.8 117.486 1352.06 112.303 1348.35 108C1344.83 103.501 1340.33 99.9807 1334.85 97.438C1329.38 94.8954 1322.92 93.624 1315.49 93.624Z" fill="#0D0616"/>
<path d="M1441.94 1.50195C1448.01 1.50195 1452.99 3.36004 1456.91 7.07622C1461.01 10.7924 1463.07 15.8777 1463.07 22.3321C1463.07 28.5909 1461.01 33.5784 1456.91 37.2946C1452.99 41.0108 1448.01 42.8689 1441.94 42.8689C1435.49 42.8689 1430.31 41.0108 1426.39 37.2946C1422.48 33.5784 1420.53 28.5909 1420.53 22.3321C1420.53 15.8777 1422.48 10.7924 1426.39 7.07622C1430.31 3.36004 1435.49 1.50195 1441.94 1.50195ZM1424.93 220.365V65.7527H1458.37V220.365H1424.93Z" fill="#0D0616"/>
<path d="M1537.57 65.7527H1583.92V94.7976H1537.57V162.862C1537.57 166.774 1537.76 170.49 1538.15 174.011C1538.74 177.531 1539.72 180.759 1541.09 183.692C1542.65 186.431 1544.8 188.68 1547.54 190.44C1550.28 192.201 1553.99 193.081 1558.69 193.081C1566.9 193.081 1573.94 190.636 1579.81 185.746L1590.96 210.684C1585.88 214.595 1580.01 217.529 1573.36 219.485C1566.71 221.245 1560.16 222.126 1553.7 222.126C1536.88 222.126 1524.46 217.92 1516.44 209.51C1508.42 200.904 1504.41 187.506 1504.41 169.317V94.7976H1480.06V65.7527H1504.41V21.7453H1537.57V65.7527Z" fill="#0D0616"/>
<path d="M1706 201.295C1700.91 208.532 1694.17 213.911 1685.76 217.431C1677.35 220.756 1667.96 222.419 1657.59 222.419C1649.38 222.419 1641.85 221.441 1635 219.485C1628.35 217.529 1622.48 214.595 1617.4 210.684C1612.31 206.576 1608.3 201.589 1605.37 195.721C1602.43 189.658 1600.97 182.812 1600.97 175.184C1600.97 166.774 1602.63 159.635 1605.96 153.767C1609.28 147.704 1613.78 142.814 1619.45 139.098C1625.32 135.382 1632.16 132.644 1639.99 130.884C1647.81 128.928 1656.03 127.95 1664.63 127.95H1704.24C1704.24 116.606 1701.7 107.804 1696.61 101.545C1691.53 95.2865 1682.63 92.0593 1669.91 91.8637C1662.48 91.8637 1656.03 93.1351 1650.55 95.6777C1645.27 98.2204 1641.75 102.426 1639.99 108.293H1605.66C1606.84 100.078 1609.48 93.1351 1613.58 87.463C1617.89 81.7909 1622.97 77.0968 1628.84 73.3806C1634.9 69.6645 1641.55 67.024 1648.79 65.4593C1656.22 63.8946 1663.65 63.1123 1671.09 63.1123C1680.67 63.1123 1689.57 64.3836 1697.78 66.9262C1706 69.4689 1713.14 73.7718 1719.2 79.8351C1726.05 86.8762 1730.64 95.2865 1732.99 105.066C1735.34 114.845 1736.51 125.505 1736.51 137.045V220.365H1707.47L1706 201.295ZM1704.24 151.714H1671.97C1666.29 151.714 1660.62 152.203 1654.95 153.181C1649.28 153.963 1644.39 156.017 1640.28 159.342C1636.37 162.471 1634.41 167.067 1634.41 173.131C1634.41 180.563 1637.05 186.235 1642.33 190.147C1647.81 193.863 1654.46 195.721 1662.29 195.721C1668.35 195.721 1673.92 194.939 1679.01 193.374C1684.29 191.809 1688.79 189.267 1692.5 185.746C1696.22 182.03 1699.06 177.434 1701.01 171.957C1703.16 166.285 1704.24 159.537 1704.24 151.714Z" fill="#0D0616"/>
<path d="M1766.55 220.365V12.9439H1800V220.365H1766.55Z" fill="#0D0616"/>
</g>
</g>
<defs>
<clipPath id="clip0_2235_375">
<rect width="1800" height="280" fill="white"/>
</clipPath>
</defs>
</svg>
