<svg width="181" height="50" viewBox="0 0 181 50" fill="none" xmlns="http://www.w3.org/2000/svg">
<g id="makers">
<path d="M6.09372 10.5298C6.13099 10.828 6.14962 11.1261 6.14962 11.4243L6.31734 13.1574C6.35461 13.4555 6.37324 13.7537 6.37324 14.0519C8.42312 11.2939 11.1066 9.91485 14.4237 9.91485C16.5108 9.91485 18.188 10.3435 19.4552 11.2007C20.7224 12.0579 21.71 13.1946 22.4182 14.6109C23.5736 13.0828 24.878 11.9275 26.3316 11.1448C27.8224 10.3248 29.5555 9.91485 31.5308 9.91485C33.208 9.91485 34.6429 10.1944 35.8355 10.7534C37.0654 11.3125 38.0345 12.0952 38.7426 13.1015C39.488 14.1078 40.0285 15.2818 40.3639 16.6235C40.6993 17.928 40.867 19.3256 40.867 20.8165V39.9921H34.4938V23.1645C34.4938 22.27 34.4379 21.3755 34.3261 20.481C34.2143 19.5865 33.972 18.7852 33.5993 18.0771C33.2639 17.3317 32.7607 16.7353 32.0898 16.2881C31.419 15.8036 30.5245 15.5613 29.4064 15.5613C28.2137 15.5613 27.2261 15.8595 26.4434 16.4558C25.698 17.0149 25.1016 17.7044 24.6544 18.5243C24.2444 19.3443 23.9649 20.276 23.8158 21.3196C23.6667 22.3259 23.5922 23.3322 23.5922 24.3385V39.9921H17.2748V23.0527C17.2748 22.1955 17.2189 21.3382 17.1071 20.481C17.0326 19.5865 16.8276 18.7852 16.4922 18.0771C16.1567 17.3689 15.6536 16.7726 14.9827 16.2881C14.3491 15.8036 13.4546 15.5613 12.2992 15.5613C11.1066 15.5613 10.1003 15.8595 9.28034 16.4558C8.49766 17.0521 7.8827 17.7975 7.43545 18.692C6.98821 19.5493 6.69004 20.4997 6.54096 21.5432C6.39188 22.5495 6.31734 23.4813 6.31734 24.3385V39.9921H0V10.5298H6.09372Z" fill="#0D0616"/>
<path d="M65.3878 36.3582C64.4187 37.7372 63.1329 38.7622 61.5303 39.433C59.9277 40.0666 58.1387 40.3834 56.1633 40.3834C54.598 40.3834 53.1631 40.1971 51.8586 39.8244C50.5914 39.4517 49.4733 38.8926 48.5043 38.1472C47.5352 37.3645 46.7712 36.4141 46.2121 35.296C45.6531 34.1406 45.3736 32.8362 45.3736 31.3826C45.3736 29.78 45.6903 28.4196 46.3239 27.3015C46.9575 26.1461 47.8148 25.2144 48.8956 24.5062C50.0137 23.7981 51.3182 23.2763 52.809 22.9409C54.2998 22.5682 55.8652 22.3818 57.5051 22.3818H65.0523C65.0523 20.2201 64.5678 18.543 63.5988 17.3503C62.6298 16.1576 60.934 15.5427 58.5114 15.5054C57.0951 15.5054 55.8652 15.7477 54.8216 16.2322C53.8153 16.7167 53.1444 17.518 52.809 18.6361H46.268C46.4917 17.0708 46.9948 15.7477 47.7775 14.6668C48.5974 13.586 49.5665 12.6915 50.6846 11.9834C51.84 11.2752 53.1072 10.7721 54.4862 10.4739C55.9024 10.1757 57.3187 10.0267 58.735 10.0267C60.5612 10.0267 62.2571 10.2689 63.8224 10.7534C65.3878 11.238 66.7481 12.0579 67.9035 13.2133C69.208 14.555 70.0838 16.1576 70.5311 18.0212C70.9783 19.8847 71.202 21.9159 71.202 24.1149V39.9921H65.6673L65.3878 36.3582ZM65.0523 26.9102H58.9027C57.8219 26.9102 56.741 27.0033 55.6602 27.1897C54.5793 27.3388 53.6476 27.7301 52.8649 28.3637C52.1195 28.96 51.7468 29.8359 51.7468 30.9913C51.7468 32.4076 52.2499 33.4884 53.2562 34.2338C54.2998 34.9419 55.567 35.296 57.0578 35.296C58.2132 35.296 59.2754 35.1469 60.2445 34.8488C61.2508 34.5506 62.108 34.0661 62.8161 33.3952C63.5243 32.6871 64.0647 31.8112 64.4374 30.7677C64.8474 29.6868 65.0523 28.401 65.0523 26.9102Z" fill="#0D0616"/>
<path d="M76.927 39.9921V0.466797H83.2444V22.5495H87.8287L95.4318 10.5298H102.588L93.3074 24.5621L103.37 39.9921H95.9909L88.22 28.0842H83.2444V39.9921H76.927Z" fill="#0D0616"/>
<path d="M111.092 27.4133C111.166 28.4942 111.39 29.5005 111.762 30.4322C112.135 31.364 112.638 32.1839 113.272 32.8921C113.943 33.5629 114.744 34.1034 115.676 34.5133C116.645 34.9233 117.763 35.1283 119.03 35.1283C120.372 35.1283 121.602 34.886 122.72 34.4015C123.838 33.917 124.658 33.0784 125.18 31.8858H131.721C131.348 33.3766 130.733 34.6624 129.876 35.7433C129.056 36.8241 128.068 37.7186 126.913 38.4267C125.795 39.0976 124.546 39.6007 123.167 39.9362C121.825 40.2343 120.39 40.3834 118.862 40.3834C116.514 40.3834 114.446 40.0294 112.657 39.3212C110.905 38.6131 109.433 37.5882 108.24 36.2464C107.048 34.9047 106.153 33.3207 105.557 31.4944C104.998 29.6309 104.718 27.5438 104.718 25.233C104.718 22.9968 105.035 20.9655 105.669 19.1393C106.302 17.2758 107.215 15.6731 108.408 14.3314C109.638 12.9897 111.11 11.9461 112.825 11.2007C114.539 10.418 116.496 10.0267 118.695 10.0267C121.005 10.0267 122.999 10.418 124.677 11.2007C126.354 11.9461 127.751 12.971 128.87 14.2755C130.025 15.58 130.882 17.108 131.441 18.8598C132 20.6115 132.28 22.5123 132.28 24.5621C132.28 25.5312 132.224 26.4816 132.112 27.4133H111.092ZM126.074 22.6054C126 20.3692 125.292 18.6361 123.95 17.4062C122.608 16.1763 120.875 15.5613 118.751 15.5613C117.558 15.5613 116.514 15.7477 115.62 16.1204C114.725 16.4931 113.961 16.9962 113.328 17.6298C112.731 18.2634 112.247 19.0088 111.874 19.8661C111.501 20.7233 111.259 21.6364 111.147 22.6054H126.074Z" fill="#0D0616"/>
<path d="M136.93 39.9921V10.5298H142.911L143.247 14.7227C145.52 11.592 148.614 10.0267 152.527 10.0267C152.9 10.0267 153.254 10.0453 153.589 10.0826C153.962 10.0826 154.298 10.1012 154.596 10.1385V16.0645C154.148 16.0645 153.701 16.0831 153.254 16.1204C152.844 16.1204 152.434 16.1204 152.024 16.1204C150.384 16.1576 149.005 16.4558 147.887 17.0149C146.806 17.5367 145.912 18.2448 145.204 19.1393C144.533 20.0338 144.048 21.096 143.75 22.3259C143.452 23.5186 143.303 24.8044 143.303 26.1834V39.9921H136.93Z" fill="#0D0616"/>
<path d="M167.839 15.3377C167.28 15.3377 166.683 15.375 166.05 15.4495C165.453 15.5241 164.876 15.6918 164.317 15.9527C163.795 16.1763 163.348 16.5117 162.975 16.959C162.64 17.4062 162.472 17.9839 162.472 18.692C162.472 19.4747 162.733 20.0897 163.255 20.5369C163.814 20.9842 164.466 21.3569 165.211 21.655C165.957 21.9159 166.739 22.1396 167.559 22.3259C168.417 22.475 169.143 22.6054 169.74 22.7172C171.342 23.0527 172.777 23.4067 174.044 23.7795C175.349 24.1522 176.448 24.6553 177.343 25.2889C178.237 25.8852 178.927 26.6679 179.411 27.6369C179.933 28.606 180.194 29.8732 180.194 31.4385C180.194 33.1157 179.84 34.532 179.132 35.6874C178.461 36.8427 177.566 37.7745 176.448 38.4826C175.367 39.1535 174.119 39.638 172.703 39.9362C171.324 40.2343 169.889 40.3834 168.398 40.3834C166.907 40.3834 165.435 40.2343 163.981 39.9362C162.528 39.638 161.186 39.1349 159.956 38.4267C158.763 37.7186 157.757 36.7868 156.937 35.6315C156.155 34.4388 155.67 33.0039 155.484 31.3267H161.913C162.062 32.0721 162.379 32.6871 162.863 33.1716C163.348 33.6561 163.907 34.0475 164.54 34.3456C165.211 34.6438 165.901 34.8488 166.609 34.9606C167.317 35.0724 167.969 35.1283 168.566 35.1283C169.013 35.1283 169.553 35.091 170.187 35.0165C170.858 34.9419 171.473 34.7742 172.032 34.5133C172.591 34.2524 173.057 33.917 173.429 33.507C173.839 33.0598 174.044 32.5007 174.044 31.8299C174.044 31.1963 173.895 30.6745 173.597 30.2645C173.299 29.8173 172.889 29.4446 172.367 29.1464C171.883 28.8482 171.286 28.6246 170.578 28.4755C169.87 28.2892 169.125 28.1028 168.342 27.9165C167.112 27.6928 165.789 27.4133 164.373 27.0779C162.994 26.7425 161.689 26.3138 160.459 25.7921C159.267 25.233 158.279 24.413 157.496 23.3322C156.714 22.2514 156.322 20.8724 156.322 19.1952C156.322 17.4062 156.676 15.934 157.384 14.7786C158.093 13.6233 159.006 12.6915 160.124 11.9834C161.242 11.238 162.49 10.7348 163.87 10.4739C165.249 10.1757 166.609 10.0267 167.951 10.0267C171.193 10.0267 173.839 10.7721 175.889 12.2629C177.976 13.7537 179.113 15.9154 179.299 18.7479H173.318C173.131 17.5553 172.516 16.7167 171.473 16.2322C170.466 15.7104 169.255 15.4122 167.839 15.3377Z" fill="#0D0616"/>
</g>
</svg>
