<svg width="160" height="160" viewBox="0 0 160 160" fill="none" xmlns="http://www.w3.org/2000/svg">
<g id="no-code">
<g id="Group">
<path id="Vector" d="M77.1206 59.8868V8.04557C77.1206 2.20177 69.5966 -0.229554 66.1377 4.49653L3.17221 90.5302C0.253303 94.5185 3.12027 100.113 8.08294 100.113H56.8795V151.954C56.8795 157.798 64.4034 160.23 67.8623 155.503L130.828 69.4698C133.747 65.4815 130.88 59.8868 125.917 59.8868H77.1206Z" stroke="#DDD8E3" stroke-width="2"/>
<path id="Vector_2" d="M124.84 101.072V72.1367C124.84 68.127 119.752 66.4707 117.433 69.7258L82.7766 118.388C80.8313 121.119 82.764 124.928 86.0953 124.928H113.16V153.863C113.16 157.873 118.248 159.529 120.567 156.274L155.223 107.612C157.169 104.881 155.236 101.072 151.905 101.072H124.84Z" stroke="#DDD8E3" stroke-width="2"/>
</g>
</g>
</svg>
