<svg width="20" height="20" viewBox="0 0 20 20" fill="none" xmlns="http://www.w3.org/2000/svg">
<g id="promotion">
<path id="Union" d="M14.1667 4.16699C13.7064 4.16699 13.3333 4.54009 13.3333 5.00033C13.3333 5.46056 13.7064 5.83366 14.1667 5.83366H17.1548L11.25 11.7384L7.67259 8.16101C7.34715 7.83557 6.81951 7.83557 6.49408 8.16101L0.244078 14.411C-0.0813592 14.7364 -0.0813592 15.2641 0.244078 15.5895C0.569515 15.915 1.09715 15.915 1.42259 15.5895L7.08333 9.92878L10.6607 13.5062C10.9862 13.8316 11.5138 13.8316 11.8393 13.5062L18.3333 7.01211V10.0003C18.3333 10.4606 18.7064 10.8337 19.1667 10.8337C19.6269 10.8337 20 10.4606 20 10.0003V5.00033C20 4.54009 19.6269 4.16699 19.1667 4.16699H14.1667Z" fill="#DDD8E3"/>
</g>
</svg>
