<svg width="160" height="160" viewBox="0 0 160 160" fill="none" xmlns="http://www.w3.org/2000/svg">
<g id="services">
<g id="Group">
<path id="Vector" d="M158 80C158 123.078 123.078 158 80 158C36.9218 158 2 123.078 2 80C2 36.9218 36.9218 2 80 2C123.078 2 158 36.9218 158 80Z" stroke="#DDD8E3" stroke-width="2"/>
<path id="Vector_2" d="M116 80C116 123.078 99.8823 158 80 158C60.1177 158 44 123.078 44 80C44 36.9218 60.1177 2 80 2C99.8823 2 116 36.9218 116 80Z" stroke="#DDD8E3" stroke-width="2"/>
<path id="Vector_3" d="M158 80C158 99.8823 123.078 116 80 116C36.9218 116 2 99.8823 2 80C2 60.1177 36.9218 44 80 44C123.078 44 158 60.1177 158 80Z" stroke="#DDD8E3" stroke-width="2"/>
</g>
</g>
</svg>
